<svg version="1.1" xmlns="http://www.w3.org/2000/svg" viewBox="0 0 771.5896934882965 752.6975425261911" width="771.5896934882965" height="752.6975425261911">
  <!-- svg-source:excalidraw -->
  
  <defs>
    <style class="style-fonts">
      @font-face {
        font-family: "Virgil";
        src: url("https://excalidraw.com/Virgil.woff2");
      }
      @font-face {
        font-family: "Cascadia";
        src: url("https://excalidraw.com/Cascadia.woff2");
      }
      @font-face {
        font-family: "Assistant";
        src: url("https://excalidraw.com/Assistant-Regular.woff2");
      }
    </style>
    
  </defs>
  <rect x="0" y="0" width="771.5896934882965" height="752.6975425261911" fill="#ffffff"></rect><g stroke-linecap="round" transform="translate(356.93621666277954 120.72061471232809) rotate(0 199.1583251953125 22.5)"><path d="M0 0 C100.3 0.33, 200.26 0.2, 398.32 0 M0 0 C89.77 -2.7, 178.8 -2.77, 398.32 0 M398.32 0 C397.18 12.13, 397.45 24.79, 398.32 45 M398.32 0 C397.12 11.8, 398.03 22.19, 398.32 45 M398.32 45 C284.7 47.02, 171.79 47.22, 0 45 M398.32 45 C307.49 46.89, 216.69 46.48, 0 45 M0 45 C0.45 36.93, 1.83 27.28, 0 0 M0 45 C0.9 27.71, 0.17 8.66, 0 0" stroke="#1e1e1e" stroke-width="2" fill="none"></path></g><g stroke-linecap="round" transform="translate(421.6260613319307 294.6121649103456) rotate(0 130.4499969482422 22.5)"><path d="M0 0 C77.78 -0.25, 151.85 0.6, 260.9 0 M0 0 C103.52 0.96, 207.61 2.31, 260.9 0 M260.9 0 C259.37 15.38, 259.68 32.48, 260.9 45 M260.9 0 C260.48 15.87, 260.32 32.84, 260.9 45 M260.9 45 C157.36 44.86, 53.84 43.61, 0 45 M260.9 45 C163.03 45.1, 63.22 44.78, 0 45 M0 45 C1.42 29.02, 1.96 10.46, 0 0 M0 45 C-0.32 27.02, -1.2 9.77, 0 0" stroke="#1e1e1e" stroke-width="2" fill="none"></path></g><g stroke-linecap="round" transform="translate(348.31265084179927 487.2566384719863) rotate(0 112.8499984741211 22.5)"><path d="M0 0 C69.93 0.91, 144.12 0.66, 225.7 0 M0 0 C48.88 2.5, 98.54 1.24, 225.7 0 M225.7 0 C224.54 10.01, 226.84 20.63, 225.7 45 M225.7 0 C225.54 14.4, 226.64 29.3, 225.7 45 M225.7 45 C159.28 43.87, 96.63 45.73, 0 45 M225.7 45 C151.9 43.31, 80.35 44.09, 0 45 M0 45 C1.65 27.99, 1.46 13.8, 0 0 M0 45 C-0.87 28.38, -0.28 11.73, 0 0" stroke="#1e1e1e" stroke-width="2" fill="none"></path></g><g stroke-linecap="round" transform="translate(10 697.6975425261911) rotate(0 102.14167022705078 22.5)"><path d="M0 0 C63.93 -0.27, 122.87 -1.77, 204.28 0 M0 0 C42.18 -1.99, 82.58 -1.86, 204.28 0 M204.28 0 C205.49 8.32, 204.7 20.33, 204.28 45 M204.28 0 C205.16 9.43, 204.1 19.47, 204.28 45 M204.28 45 C143.15 44.32, 79.67 45.02, 0 45 M204.28 45 C153.49 43.4, 101.9 44.02, 0 45 M0 45 C1.34 30.85, 0.86 13.74, 0 0 M0 45 C0.11 33.17, 1.31 22.95, 0 0" stroke="#1e1e1e" stroke-width="2" fill="none"></path></g><g stroke-linecap="round" transform="translate(575.0063652412261 691.3844248989334) rotate(0 93.29166412353516 22.5)"><path d="M0 0 C65.08 -1.62, 131.56 -0.98, 186.58 0 M0 0 C69.09 0.77, 138.44 0.92, 186.58 0 M186.58 0 C187.52 10.72, 185.31 21.14, 186.58 45 M186.58 0 C186.9 10.89, 187.07 21.79, 186.58 45 M186.58 45 C144.6 47.17, 100.71 43.82, 0 45 M186.58 45 C147.83 45.76, 108.28 46.03, 0 45 M0 45 C0.9 33.03, -1.32 19.26, 0 0 M0 45 C1.05 33.16, 0.15 19.75, 0 0" stroke="#1e1e1e" stroke-width="2" fill="none"></path></g><g mask="url(#mask-1KK-JUDR0dQEBxMJJGlVW)" stroke-linecap="round"><g transform="translate(555.5513049208814 166.72061471232809) rotate(0 -1.4661771683404368 63.445775099008756)"><path d="M-0.48 -1.16 C-1.08 20.3, -2.77 106.57, -3.03 127.77 M1.46 0.84 C0.66 22.06, -3.4 105.1, -4.03 126.1" stroke="#1e1e1e" stroke-width="2" fill="none"></path></g><g transform="translate(555.5513049208814 166.72061471232809) rotate(0 -1.4661771683404368 63.445775099008756)"><path d="M-11.62 102.28 C-11.14 110.34, -5.14 120.18, -4.03 126.1 M-11.62 102.28 C-10.76 107.28, -8.91 113.83, -4.03 126.1" stroke="#1e1e1e" stroke-width="2" fill="none"></path></g><g transform="translate(555.5513049208814 166.72061471232809) rotate(0 -1.4661771683404368 63.445775099008756)"><path d="M5.47 102.98 C0.08 110.73, 0.21 120.33, -4.03 126.1 M5.47 102.98 C2.46 107.72, 0.43 114.11, -4.03 126.1" stroke="#1e1e1e" stroke-width="2" fill="none"></path></g></g><mask id="mask-1KK-JUDR0dQEBxMJJGlVW"><rect x="0" y="0" fill="#fff" width="658.4836592575623" height="393.6121649103456"></rect><rect x="481.37679187607614" y="205.16638981133684" fill="#000" width="145.4166717529297" height="50" opacity="1"></rect></mask><g mask="url(#mask-bABlIzGtx3tu9tU-ecZYe)" stroke-linecap="round"><g transform="translate(535.6603344869411 340.6121649103456) rotate(0 -44.053872630858336 73.07223678082036)"><path d="M-0.1 0.88 C-14.55 11.01, -74.71 35.55, -87.21 59.64 C-99.71 83.73, -77.07 131.1, -75.1 145.43 M-1.61 0.29 C-16.1 10.65, -75.26 36.37, -87.69 60.72 C-100.12 85.06, -78.2 132.08, -76.18 146.37" stroke="#1e1e1e" stroke-width="2" fill="none"></path></g><g transform="translate(535.6603344869411 340.6121649103456) rotate(0 -44.053872630858336 73.07223678082036)"><path d="M-90.81 126.1 C-85.75 132.86, -84.88 135.63, -76.18 146.37 M-90.81 126.1 C-88.07 131.74, -84.86 136.21, -76.18 146.37" stroke="#1e1e1e" stroke-width="2" fill="none"></path></g><g transform="translate(535.6603344869411 340.6121649103456) rotate(0 -44.053872630858336 73.07223678082036)"><path d="M-74.36 121.43 C-73.62 129.4, -77.02 133.38, -76.18 146.37 M-74.36 121.43 C-75.6 128.12, -76.34 133.71, -76.18 146.37" stroke="#1e1e1e" stroke-width="2" fill="none"></path></g></g><mask id="mask-bABlIzGtx3tu9tU-ecZYe"><rect x="0" y="0" fill="#fff" width="723.7680797486578" height="586.7566384719863"></rect><rect x="342.1442564005174" y="388.63367256661917" fill="#000" width="210.81666564941406" height="25" opacity="1"></rect></mask><g mask="url(#mask-8rjrh5D4CsRmykn8jVfos)" stroke-linecap="round"><g transform="translate(372.8066447382837 532.7566384719863) rotate(0 -122.10499674704158 81.97045202710245)"><path d="M0.9 -0.88 C-25.37 5.44, -116.68 11.4, -157.68 38.78 C-198.68 66.16, -230.55 142.4, -245.1 163.41 M-0.09 1.27 C-25.95 7.66, -114.86 12.75, -155.29 39.94 C-195.71 67.14, -227.7 143.99, -242.67 164.44" stroke="#1e1e1e" stroke-width="2" fill="none"></path></g><g transform="translate(372.8066447382837 532.7566384719863) rotate(0 -122.10499674704158 81.97045202710245)"><path d="M-238.29 139.83 C-240.85 146.04, -241.86 152.75, -242.67 164.44 M-238.29 139.83 C-240.48 146.45, -240.68 151.63, -242.67 164.44" stroke="#1e1e1e" stroke-width="2" fill="none"></path></g><g transform="translate(372.8066447382837 532.7566384719863) rotate(0 -122.10499674704158 81.97045202710245)"><path d="M-223.49 148.4 C-230.44 152.22, -235.77 156.43, -242.67 164.44 M-223.49 148.4 C-229.41 152.94, -233.39 155.93, -242.67 164.44" stroke="#1e1e1e" stroke-width="2" fill="none"></path></g></g><mask id="mask-8rjrh5D4CsRmykn8jVfos"><rect x="0" y="0" fill="#fff" width="717.0166382323669" height="796.6975425261912"></rect><rect x="146.2296447382837" y="559.7566384719862" fill="#000" width="139" height="25" opacity="1"></rect></mask><g mask="url(#mask-qfLquUAmUhJP52CL0Qe3e)" stroke-linecap="round"><g transform="translate(448.10164473828377 532.7566384719863) rotate(0 52.766830775013716 78.81389321347353)"><path d="M-0.6 -0.72 C-7.9 17.77, -67.46 83.51, -42.89 110.04 C-18.32 136.57, 115.24 150.48, 146.8 158.47 M1.28 1.52 C-5.72 20.24, -65.31 85.45, -40.64 111.3 C-15.97 137.14, 118.18 148.57, 149.3 156.57" stroke="#1e1e1e" stroke-width="2" fill="none"></path></g><g transform="translate(448.10164473828377 532.7566384719863) rotate(0 52.766830775013716 78.81389321347353)"><path d="M124.72 161.11 C132.76 158.06, 142.28 156.6, 149.3 156.57 M124.72 161.11 C133.86 158.56, 142.81 157.17, 149.3 156.57" stroke="#1e1e1e" stroke-width="2" fill="none"></path></g><g transform="translate(448.10164473828377 532.7566384719863) rotate(0 52.766830775013716 78.81389321347353)"><path d="M127.55 144.25 C134.41 147.49, 142.86 152.36, 149.3 156.57 M127.55 144.25 C135.49 147.95, 143.39 152.81, 149.3 156.57" stroke="#1e1e1e" stroke-width="2" fill="none"></path></g></g><mask id="mask-qfLquUAmUhJP52CL0Qe3e"><rect x="0" y="0" fill="#fff" width="737.6365592661288" height="790.3844248989334"></rect><rect x="332.51768237291026" y="630.8313728179619" fill="#000" width="147.1666717529297" height="25" opacity="1"></rect></mask><g mask="url(#mask-73_K_EKkkw0CFDB5WCrdJ)" stroke-linecap="round"><g transform="translate(646.5347815124235 690.3844248989334) rotate(0 -76.30406838706995 -78.81389321347353)"><path d="M-0.89 -0.54 C-17.5 -18.2, -74.8 -80.58, -100.27 -106.7 C-125.74 -132.82, -144.99 -148.61, -153.72 -157.26 M0.85 1.8 C-15.32 -16.13, -72.57 -81.51, -97.95 -108.38 C-123.32 -135.24, -142.33 -151.13, -151.4 -159.4" stroke="#1e1e1e" stroke-width="2" fill="none"></path></g><g transform="translate(646.5347815124235 690.3844248989334) rotate(0 -76.30406838706995 -78.81389321347353)"><path d="M-128.18 -150.15 C-134.82 -153.86, -138.31 -156.79, -151.4 -159.4 M-128.18 -150.15 C-136.03 -153.89, -142.61 -156.95, -151.4 -159.4" stroke="#1e1e1e" stroke-width="2" fill="none"></path></g><g transform="translate(646.5347815124235 690.3844248989334) rotate(0 -76.30406838706995 -78.81389321347353)"><path d="M-139.56 -137.38 C-143.28 -144.2, -143.94 -150.31, -151.4 -159.4 M-139.56 -137.38 C-143.64 -145.27, -146.45 -152.55, -151.4 -159.4" stroke="#1e1e1e" stroke-width="2" fill="none"></path></g></g><mask id="mask-73_K_EKkkw0CFDB5WCrdJ"><rect x="0" y="0" fill="#fff" width="899.1429182865634" height="948.0122113258805"></rect><rect x="519.4364062056711" y="570.3422372043656" fill="#000" width="55.13333511352539" height="25" opacity="1"></rect></mask><g mask="url(#mask-Z80f5yCW6G7Yk81piWNBK)" stroke-linecap="round"><g transform="translate(666.6904485745492 690.3844248989334) rotate(0 -33.272262866046844 -174.5080728967089)"><path d="M-0.74 0.85 C2.29 -18.44, 31.33 -57.77, 17.3 -116.24 C3.26 -174.71, -67.88 -311.08, -84.95 -349.97 M1.07 0.24 C4.54 -19.37, 33.89 -59.94, 19.43 -118.17 C4.96 -176.4, -68.32 -310.71, -85.72 -349.16" stroke="#1e1e1e" stroke-width="2" fill="none"></path></g><g transform="translate(666.6904485745492 690.3844248989334) rotate(0 -33.272262866046844 -174.5080728967089)"><path d="M-67.64 -331.9 C-70.24 -337.76, -75.11 -339.82, -85.72 -349.16 M-67.64 -331.9 C-70.65 -336.28, -75.69 -339.96, -85.72 -349.16" stroke="#1e1e1e" stroke-width="2" fill="none"></path></g><g transform="translate(666.6904485745492 690.3844248989334) rotate(0 -33.272262866046844 -174.5080728967089)"><path d="M-82.96 -324.31 C-82.06 -331.79, -83.48 -335.57, -85.72 -349.16 M-82.96 -324.31 C-82.58 -330.29, -84.25 -335.64, -85.72 -349.16" stroke="#1e1e1e" stroke-width="2" fill="none"></path></g></g><mask id="mask-Z80f5yCW6G7Yk81piWNBK"><rect x="0" y="0" fill="#fff" width="870.0412984448462" height="1139.4005706923513"></rect><rect x="657.5269430868882" y="561.2688668623264" fill="#000" width="55.13333511352539" height="25" opacity="1"></rect></mask><g transform="translate(387.59454185809204 130.72061471232809) rotate(0 168.5 12.5)"><text x="168.5" y="17.52" font-family="Virgil, Segoe UI Emoji" font-size="20px" fill="#1e1e1e" text-anchor="middle" style="white-space: pre;" direction="ltr" dominant-baseline="alphabetic">Client for Customizing Parameters</text></g><g transform="translate(445.1260613319307 304.6121649103456) rotate(0 106.94999694824219 12.5)"><text x="106.94999694824219" y="17.52" font-family="Virgil, Segoe UI Emoji" font-size="20px" fill="#1e1e1e" text-anchor="middle" style="white-space: pre;" direction="ltr" dominant-baseline="alphabetic">Backend For Frontend</text></g><g transform="translate(370.2043134394555 497.2566384719863) rotate(0 90.95833587646484 12.5)"><text x="90.95833587646484" y="17.52" font-family="Virgil, Segoe UI Emoji" font-size="20px" fill="#1e1e1e" text-anchor="middle" style="white-space: pre;" direction="ltr" dominant-baseline="alphabetic">Python Web Server</text></g><g transform="translate(33.80833435058594 707.6975425261911) rotate(0 78.33333587646484 12.5)"><text x="78.33333587646484" y="17.52" font-family="Virgil, Segoe UI Emoji" font-size="20px" fill="#1e1e1e" text-anchor="middle" style="white-space: pre;" direction="ltr" dominant-baseline="alphabetic">YFinance Service</text></g><g transform="translate(593.8813652412261 701.3844248989334) rotate(0 74.41666412353516 12.5)"><text x="74.41666412353516" y="17.52" font-family="Virgil, Segoe UI Emoji" font-size="20px" fill="#1e1e1e" text-anchor="middle" style="white-space: pre;" direction="ltr" dominant-baseline="alphabetic">Cloud Solutions</text></g><g transform="translate(481.37679187607614 205.16638981133678) rotate(0 72.8914843118564 24.85718959309162)"><text x="72.70833587646484" y="17.52" font-family="Virgil, Segoe UI Emoji" font-size="20px" fill="#1e1e1e" text-anchor="middle" style="white-space: pre;" direction="ltr" dominant-baseline="alphabetic">Customization </text><text x="72.70833587646484" y="42.519999999999996" font-family="Virgil, Segoe UI Emoji" font-size="20px" fill="#1e1e1e" text-anchor="middle" style="white-space: pre;" direction="ltr" dominant-baseline="alphabetic">Requests</text></g><g transform="translate(342.1442564005174 388.6336725666191) rotate(0 147.72535554273145 25.3072275384896)"><text x="105.40833282470703" y="17.52" font-family="Virgil, Segoe UI Emoji" font-size="20px" fill="#1e1e1e" text-anchor="middle" style="white-space: pre;" direction="ltr" dominant-baseline="alphabetic">Strategy Parameters</text></g><g transform="translate(146.2296447382837 559.7566384719862) rotate(0 104.4756180984578 54.780796716758516)"><text x="69.5" y="17.52" font-family="Virgil, Segoe UI Emoji" font-size="20px" fill="#1e1e1e" text-anchor="middle" style="white-space: pre;" direction="ltr" dominant-baseline="alphabetic">Fetches Data</text></g><g transform="translate(332.51768237291014 630.8313728179619) rotate(0 165.83776923007088 -19.196773634280135)"><text x="73.58333587646484" y="17.52" font-family="Virgil, Segoe UI Emoji" font-size="20px" fill="#1e1e1e" text-anchor="middle" style="white-space: pre;" direction="ltr" dominant-baseline="alphabetic">Runs Backtest</text></g><g transform="translate(519.4364062056711 570.3422372043656) rotate(0 50.663844839870535 41.239724559801914)"><text x="27.566667556762695" y="17.52" font-family="Virgil, Segoe UI Emoji" font-size="20px" fill="#1e1e1e" text-anchor="middle" style="white-space: pre;" direction="ltr" dominant-baseline="alphabetic">Hosts</text></g><g transform="translate(657.5269430868882 561.2688668623264) rotate(0 -21.994562166848027 -45.44771675675446)"><text x="27.566667556762695" y="17.52" font-family="Virgil, Segoe UI Emoji" font-size="20px" fill="#1e1e1e" text-anchor="middle" style="white-space: pre;" direction="ltr" dominant-baseline="alphabetic">Hosts</text></g><g transform="translate(19.090700551906366 10) rotate(0 80.84166717529297 17.5)"><text x="0" y="24.528" font-family="Virgil, Segoe UI Emoji" font-size="28px" fill="#1e1e1e" text-anchor="start" style="white-space: pre;" direction="ltr" dominant-baseline="alphabetic">Initial Idea</text></g></svg>